<svg xmlns="http://www.w3.org/2000/svg" viewBox="0 0 128 128" role="img" aria-label="Nalira Balanced Fold recovered standard mark from Home Ambient V0.3"><defs>
    <linearGradient id="body" x1="12" y1="7" x2="88" y2="116" gradientUnits="userSpaceOnUse">
      <stop offset="0" stop-color="#242E9A" />
      <stop offset="0.47" stop-color="#141D7D" />
      <stop offset="0.78" stop-color="#0B185E" />
      <stop offset="1" stop-color="#050E56" />
    </linearGradient>
    <linearGradient id="foldUpper" x1="75" y1="45" x2="116" y2="52" gradientUnits="userSpaceOnUse">
      <stop offset="0" stop-color="#C1BFF3" />
      <stop offset="0.35" stop-color="#8988D9" />
      <stop offset="0.72" stop-color="#5B5AB0" />
      <stop offset="1" stop-color="#46469A" />
    </linearGradient>
    <linearGradient id="foldLower" x1="88" y1="61" x2="113" y2="112" gradientUnits="userSpaceOnUse">
      <stop offset="0" stop-color="#999BDB" />
      <stop offset="0.52" stop-color="#5153A4" />
      <stop offset="1" stop-color="#2E3086" />
    </linearGradient>
  </defs>
  <path data-role="fold-lower" fill="url(#foldLower)" d="M74.6 45.5 L114.8 85.7 C117 88 116.6 91.8 114.4 94.3 L90.7 115.4 C89.8 116.2 88.3 116.2 87.1 115.4 L86.9 60.5 Z" />
  <path data-role="fold-upper" fill="url(#foldUpper)" d="M74.6 45.5 L113.3 13 C114.8 11.7 116 12.8 116 14.8 V82.8 C116 84 115.5 85 114.8 85.7 Z" />
  <path data-role="body" fill="url(#body)" d="M13.8 6 H27.2 L87.5 60.2 V113.5 C87.5 114.7 87.3 115.2 86.9 115.4 L39.1 74.8 V102.8 C39.1 104.1 38.7 105 38 105.7 L16.5 122.5 C14.9 123.7 12.4 123.7 11.1 122.5 C10.4 121.9 10 120.8 10 119.7 V9.3 C10 7.4 11.7 6 13.8 6 Z" />
  <path data-role="seam" d="M74 45.8 L114.8 86.4" fill="none" stroke="#FFFFFF" stroke-width="2.15" stroke-linecap="round" opacity="0.96" />
  <path data-role="lyra-point" fill="#FFFFFF" d="M39.1 43.4 C39.9 51.5 43 55.6 50.9 58.5 C43 61.4 39.9 65.5 39.1 72.1 C38.2 65.5 35 61.4 27.8 58.5 C35 55.6 38.2 51.5 39.1 43.4 Z" />
</svg>